<?xml version="1.0" encoding="UTF-8" standalone="no"?>
<!-- Created with Inkscape (http://www.inkscape.org/) -->

<svg
   width="43.913952mm"
   height="12.776464mm"
   viewBox="0 0 43.913952 12.776464"
   version="1.1"
   id="svg5"
   xml:space="preserve"
   inkscape:version="1.2 (dc2aedaf03, 2022-05-15)"
   sodipodi:docname="footer-logo.svg"
   xmlns:inkscape="http://www.inkscape.org/namespaces/inkscape"
   xmlns:sodipodi="http://sodipodi.sourceforge.net/DTD/sodipodi-0.dtd"
   xmlns:xlink="http://www.w3.org/1999/xlink"
   xmlns="http://www.w3.org/2000/svg"
   xmlns:svg="http://www.w3.org/2000/svg"><sodipodi:namedview
     id="namedview7"
     pagecolor="#505050"
     bordercolor="#eeeeee"
     borderopacity="1"
     inkscape:showpageshadow="0"
     inkscape:pageopacity="0"
     inkscape:pagecheckerboard="0"
     inkscape:deskcolor="#505050"
     inkscape:document-units="mm"
     showgrid="false"
     inkscape:zoom="0.74564394"
     inkscape:cx="740.97028"
     inkscape:cy="541.81356"
     inkscape:window-width="1920"
     inkscape:window-height="1017"
     inkscape:window-x="-8"
     inkscape:window-y="-8"
     inkscape:window-maximized="1"
     inkscape:current-layer="layer1" /><defs
     id="defs2"><path
       id="a"
       d="m 0.014,0.03 h 93.96 V 48.32 H 0.015 Z" /></defs><g
     inkscape:label="Layer 1"
     inkscape:groupmode="layer"
     id="layer1"
     transform="translate(152.53762,-5.3214456)"><g
       fill="none"
       fill-rule="evenodd"
       id="g5718"
       transform="matrix(0.26458333,0,0,0.26458333,-152.53762,5.3135081)"
       style="fill:#ffffff"><path
         d="m 0,14.13 v 0.123 L 27.95,27.383 56,14.209 V 14.176 L 27.95,1 Z M 10.077,14.192 27.95,5.795 45.827,14.192 27.95,22.588 10.076,14.192 Z M 27.95,32.483 0,19.55 v 4.784 L 27.95,37.298 56,24.289 v -4.784 z m 0,9.703 L 0,29.25 v 4.783 L 27.95,47 56,33.99 v -4.784 z"
         fill="#bdbafa"
         id="path5709"
         style="fill:#ffffff" /><g
         transform="translate(72)"
         id="g5716"
         style="fill:#ffffff"><mask
           id="b"
           fill="#ffffff"><use
             xlink:href="#a"
             id="use5711" /></mask><path
           d="m 87.56,24.152 a 8.1,8.1 0 0 0 -2.161,-5.573 7.259,7.259 0 0 0 -2.34,-1.673 6.864,6.864 0 0 0 -2.85,-0.601 c -1.01,0 -1.961,0.2 -2.852,0.601 a 7.257,7.257 0 0 0 -2.34,1.673 8.102,8.102 0 0 0 -2.16,5.574 8.102,8.102 0 0 0 2.16,5.573 7.257,7.257 0 0 0 2.34,1.672 6.864,6.864 0 0 0 2.851,0.602 c 1.01,0 1.96,-0.2 2.852,-0.602 a 7.259,7.259 0 0 0 2.339,-1.672 8.1,8.1 0 0 0 2.16,-5.574 z m 6.415,0 c 0,1.932 -0.357,3.723 -1.07,5.373 a 13.098,13.098 0 0 1 -2.94,4.28 c -1.247,1.205 -2.71,2.156 -4.388,2.854 -1.678,0.699 -3.468,1.048 -5.369,1.048 -1.9,0 -3.683,-0.349 -5.346,-1.048 a 13.863,13.863 0 0 1 -4.366,-2.876 13.351,13.351 0 0 1 -2.94,-4.302 c -0.713,-1.65 -1.07,-3.426 -1.07,-5.329 0,-1.873 0.364,-3.634 1.092,-5.284 a 13.92,13.92 0 0 1 2.962,-4.325 13.671,13.671 0 0 1 4.367,-2.898 13.552,13.552 0 0 1 5.301,-1.048 c 1.901,0 3.69,0.35 5.369,1.048 1.678,0.698 3.14,1.65 4.388,2.854 1.248,1.204 2.228,2.638 2.94,4.302 0.713,1.665 1.07,3.449 1.07,5.351 z M 64.258,36.905 a 8.6,8.6 0 0 1 -1.715,0.58 c -0.638,0.148 -1.3,0.222 -1.982,0.222 a 9.84,9.84 0 0 1 -2.74,-0.379 6.003,6.003 0 0 1 -2.295,-1.226 c -0.653,-0.565 -1.173,-1.3 -1.56,-2.207 -0.385,-0.907 -0.578,-2 -0.578,-3.277 V 0.029 h 6.549 v 29.474 c 0,1.07 0.215,1.806 0.646,2.207 0.43,0.401 0.943,0.602 1.537,0.602 0.742,0 1.455,-0.223 2.138,-0.669 z M 50.492,11.22 38.908,41.854 c -0.861,2.289 -1.99,3.939 -3.386,4.95 -1.396,1.01 -3.06,1.515 -4.99,1.515 -0.297,0 -0.623,-0.022 -0.98,-0.066 a 7.352,7.352 0 0 1 -1.025,-0.201 l -2.138,-5.975 a 8.486,8.486 0 0 0 1.56,0.557 c 0.534,0.134 1.039,0.201 1.514,0.201 1.01,0 1.93,-0.23 2.762,-0.691 0.832,-0.46 1.47,-1.315 1.916,-2.564 l 0.891,-2.586 -9.935,-25.773 h 6.995 l 5.925,16.588 5.57,-16.588 h 6.905 z M 23.538,7.342 H 6.786 v 8.294 h 16.529 v 5.618 H 6.785 V 37.038 H 0.015 V 1.412 h 23.524 v 5.93 z"
           fill="#000000"
           mask="url(#b)"
           id="path5714"
           style="fill:#ffffff" /></g></g></g></svg>
